<svg width="35" height="27" viewBox="0 0 35 27" fill="none" xmlns="http://www.w3.org/2000/svg">
<path d="M14.7607 0.269531C13.8516 0.269531 13.1201 1.00098 13.1201 1.91016C13.1201 2.81934 13.8516 3.55078 14.7607 3.55078H15.8545V5.82715C8.52637 6.60645 2.74316 12.5537 2.22363 19.957H32.7734C32.2471 12.5537 26.4639 6.60645 19.1357 5.82715V3.55078H20.2295C21.1387 3.55078 21.8701 2.81934 21.8701 1.91016C21.8701 1.00098 21.1387 0.269531 20.2295 0.269531H14.7607ZM1.63574 23.2383C0.726562 23.2383 -0.00488281 23.9697 -0.00488281 24.8789C-0.00488281 25.7881 0.726562 26.5195 1.63574 26.5195H33.3545C34.2637 26.5195 34.9951 25.7881 34.9951 24.8789C34.9951 23.9697 34.2637 23.2383 33.3545 23.2383H1.63574Z" fill="#6E5C55"/>
</svg>
