<svg width="26" height="26" viewBox="0 0 26 26" fill="none" xmlns="http://www.w3.org/2000/svg">
<path d="M14.0093 1.58807C13.8171 1.21441 13.4281 0.976196 13.0062 0.976196C12.5843 0.976196 12.1953 1.21441 12.0031 1.58807L8.55309 8.32339L1.05777 9.50978C0.640586 9.57517 0.293711 9.86943 0.162461 10.2711C0.0312109 10.6728 0.139024 11.1119 0.434336 11.4108L5.79684 16.7589L4.61559 24.2275C4.54996 24.6432 4.7234 25.0636 5.06559 25.3112C5.40777 25.5587 5.85777 25.5961 6.23746 25.4046L13.0062 21.9762L19.7703 25.4046C20.1453 25.5961 20.6 25.5587 20.9421 25.3112C21.2843 25.0636 21.4578 24.6479 21.3921 24.2275L20.2062 16.7589L25.5687 11.4108C25.8687 11.1119 25.9718 10.6728 25.8406 10.2711C25.7093 9.86943 25.3671 9.57517 24.9453 9.50978L17.4546 8.32339L14.0093 1.58807Z" fill="#D9D9D9"/>
</svg>
